<?xml version="1.0" encoding="UTF-8" standalone="no"?>
<svg xmlns="http://www.w3.org/2000/svg" width="128" height="128" viewBox="0 0 128 128">
  <rect width="128" height="128" fill="#875A7B" rx="10" ry="10"/>
  <g fill="#ffffff">
    <path d="M64 20c-24.3 0-44 19.7-44 44s19.7 44 44 44 44-19.7 44-44-19.7-44-44-44zm0 8c19.9 0 36 16.1 36 36S83.9 100 64 100 28 83.9 28 64s16.1-36 36-36z"/>
    <path d="M64 36c-15.5 0-28 12.5-28 28s12.5 28 28 28 28-12.5 28-28-12.5-28-28-28zm0 8c11.1 0 20 8.9 20 20s-8.9 20-20 20-20-8.9-20-20 8.9-20 20-20z"/>
    <path d="M64 52c-6.6 0-12 5.4-12 12s5.4 12 12 12 12-5.4 12-12-5.4-12-12-12zm0 8c2.2 0 4 1.8 4 4s-1.8 4-4 4-4-1.8-4-4 1.8-4 4-4z"/>
    <rect x="60" y="20" width="8" height="16"/>
    <rect x="60" y="92" width="8" height="16"/>
    <rect x="92" y="60" width="16" height="8"/>
    <rect x="20" y="60" width="16" height="8"/>
  </g>
</svg>
